<?xml version="1.0" encoding="utf-8"?>
<!-- Generator: Adobe Illustrator 26.0.1, SVG Export Plug-In . SVG Version: 6.00 Build 0)  -->
<svg version="1.1" id="レイヤー_1" xmlns="http://www.w3.org/2000/svg" xmlns:xlink="http://www.w3.org/1999/xlink" x="0px"
	 y="0px" viewBox="0 0 40 40" style="enable-background:new 0 0 40 40;" xml:space="preserve">
<style type="text/css">
	.st0{fill:#666666;stroke:#FFFFFF;stroke-miterlimit:10;}
	.st1{fill:#2EA7E0;stroke:#FFFFFF;stroke-miterlimit:10;}
	.st2{fill:none;stroke:#FFFFFF;stroke-miterlimit:10;}
	.st3{fill:none;stroke:#FFFFFF;stroke-miterlimit:10;stroke-dasharray:1.0316,1.0316;}
	.st4{fill:none;stroke:#FFFFFF;stroke-miterlimit:10;stroke-dasharray:0.957,0.957;}
</style>
<path class="st0" d="M23.6,17.1H4.4c-1.1,0-2-0.9-2-2V3.3h23.2v11.8C25.6,16.2,24.7,17.1,23.6,17.1z"/>
<rect x="2.4" y="3.3" class="st1" width="23.2" height="5.4"/>
<path class="st0" d="M35.8,36.9H10.5c-1.1,0-2-0.9-2-2V14.4h29.3v20.5C37.8,36,36.9,36.9,35.8,36.9z"/>
<rect x="8.5" y="14.4" class="st1" width="29.3" height="5.4"/>
<g>
	<g>
		<line class="st2" x1="25.6" y1="3.3" x2="26" y2="3.6"/>
		<line class="st3" x1="26.8" y1="4.3" x2="37.1" y2="13.7"/>
		<line class="st2" x1="37.5" y1="14" x2="37.8" y2="14.4"/>
	</g>
</g>
<g>
	<g>
		<line class="st2" x1="3" y1="16.5" x2="3.1" y2="17"/>
		<line class="st4" x1="3.4" y1="17.9" x2="8.2" y2="33.9"/>
		<line class="st2" x1="8.4" y1="34.4" x2="8.5" y2="34.9"/>
	</g>
</g>
</svg>
