<?xml version="1.0" encoding="utf-8"?>
<!-- Generator: Adobe Illustrator 26.0.1, SVG Export Plug-In . SVG Version: 6.00 Build 0)  -->
<svg version="1.1" id="レイヤー_1" xmlns="http://www.w3.org/2000/svg" xmlns:xlink="http://www.w3.org/1999/xlink" x="0px"
	 y="0px" viewBox="0 0 40 40" style="enable-background:new 0 0 40 40;" xml:space="preserve">
<style type="text/css">
	.st0{fill:#FFFFFF;stroke:#231815;stroke-miterlimit:10;}
	.st1{fill:#2EA7E0;stroke:#231815;stroke-miterlimit:10;}
	.st2{fill:none;stroke:#231815;stroke-miterlimit:10;}
	.st3{fill:none;stroke:#231815;stroke-miterlimit:10;stroke-dasharray:1.0316,1.0316;}
	.st4{fill:none;stroke:#231815;stroke-miterlimit:10;stroke-dasharray:0.957,0.957;}
</style>
<path class="st0" d="M23.63,17.09H4.4c-1.1,0-2-0.9-2-2V3.29h23.23v11.79C25.63,16.19,24.73,17.09,23.63,17.09z"/>
<rect x="2.4" y="3.29" class="st1" width="23.23" height="5.44"/>
<path class="st0" d="M35.83,36.87H10.51c-1.1,0-2-0.9-2-2v-20.5h29.32v20.5C37.83,35.98,36.93,36.87,35.83,36.87z"/>
<rect x="8.51" y="14.37" class="st1" width="29.32" height="5.44"/>
<g>
	<g>
		<line class="st2" x1="25.63" y1="3.29" x2="26" y2="3.63"/>
		<line class="st3" x1="26.76" y1="4.32" x2="37.07" y2="13.68"/>
		<line class="st2" x1="37.46" y1="14.03" x2="37.83" y2="14.37"/>
	</g>
</g>
<g>
	<g>
		<line class="st2" x1="2.99" y1="16.5" x2="3.13" y2="16.98"/>
		<line class="st4" x1="3.41" y1="17.89" x2="8.23" y2="33.93"/>
		<line class="st2" x1="8.36" y1="34.39" x2="8.51" y2="34.87"/>
	</g>
</g>
</svg>
