<?xml version="1.0" standalone="no"?><!DOCTYPE svg PUBLIC "-//W3C//DTD SVG 1.1//EN" "http://www.w3.org/Graphics/SVG/1.1/DTD/svg11.dtd"><svg class="icon" width="300px" height="300.00px" viewBox="0 0 1024 1024" version="1.1" xmlns="http://www.w3.org/2000/svg"><path fill="#1296db" d="M513.2 872c-12 0-23.9-3.2-34.6-9.6L109.8 639.8c-19.9-12-32.3-34-32.3-57.3V474.6c0-23.7 12.7-45.9 33.2-57.8l368.1-214.7c20.6-12.1 46.4-12.1 67.2-0.1l375.1 217.3c20.7 12 33.5 34.4 33.4 58.4l-0.8 108c-0.2 23.4-12.8 45.3-33 57.2L547.1 862.7c-10.5 6.2-22.2 9.3-33.9 9.3z m-0.8-643.4c-5.5 0-10.9 1.4-15.8 4.3l-368 214.6c-9.6 5.6-15.5 16-15.5 27.1v107.9c0 10.9 5.8 21.2 15.1 26.8L497 831.9c9.8 6 22.1 6 32.1 0.2l373.6-219.9c9.4-5.5 15.3-15.8 15.4-26.8l0.8-108c0.1-11.2-5.9-21.7-15.6-27.3L528.1 232.8c-4.8-2.8-10.2-4.2-15.7-4.2z m-24.7-11.1h0.1-0.1z"  /><path fill="#1296db" d="M401.3 379.3h30.4l3 80.7c0.8 10.2 1.5 16.9 2 20.2 1.3 6.6 4.6 11.1 10 13.5 5.4 2.4 14.8 3.6 28.1 3.6h29.3l0.9 25.6h-32.5c-15.4 0-26.5-0.9-33.5-2.6-16-4.6-26.4-14.6-31.3-30.1-1.8-6-3-16.1-3.5-30.1l-2.9-80.8zM515.4 522.9l-0.9-25.4H576c8.5 0 14.2-1.2 17.1-3.7 3.6-3 5.3-7.5 5.1-13.3-0.3-7.2-2.8-12.1-7.7-14.9-3.1-1.7-8.4-2.6-15.8-2.6h-48l-0.9-25.4h48c9 0 14.9-1.2 17.5-3.4 3.2-2.7 4.7-7 4.5-12.7-0.2-6.3-2.6-10.9-7-13.8-1.6-1.2-3.5-1.9-5.6-2.3-2.1-0.4-5.7-0.5-10.7-0.5H511l-0.9-25.6h67c9.5 0.1 15.6 0.4 18.2 0.6 2.7 0.3 5.6 1 8.8 2.2 7.6 2.7 13.6 7.8 18.2 15.1 4.6 6.7 7 14 7.3 21.7 0.5 13.3-5.5 23.8-18 31.2 13.1 8.3 19.9 19.9 20.4 34.7 0.5 13.6-4.3 23.8-14.4 30.4-4.5 3-9.4 5.1-14.7 6.1-5.3 1.1-13.4 1.6-24.2 1.6h-63.3zM518.4 692.9c-11.1 0-22.3-3-32.3-8.9l-246-132.3c-5.8-3.1-7.9-10.3-4.8-16.1 3.1-5.8 10.3-7.9 16.1-4.8l246.4 132.6c12.9 7.7 28.4 7.6 40.8 0.1l241.4-132c5.7-3.1 12.9-1 16.1 4.7 3.1 5.7 1 13-4.7 16.1L550.4 684c-9.7 5.9-20.8 8.9-32 8.9z"  /></svg>