<?xml version="1.0" encoding="UTF-8" standalone="no"?>
<svg
   xmlns:dc="http://purl.org/dc/elements/1.1/"
   xmlns:cc="http://creativecommons.org/ns#"
   xmlns:rdf="http://www.w3.org/1999/02/22-rdf-syntax-ns#"
   xmlns:svg="http://www.w3.org/2000/svg"
   xmlns="http://www.w3.org/2000/svg"
   xmlns:sodipodi="http://sodipodi.sourceforge.net/DTD/sodipodi-0.dtd"
   xmlns:inkscape="http://www.inkscape.org/namespaces/inkscape"
   width="40"
   height="40"
   viewBox="0 0 10.583333 10.583333"
   version="1.1"
   id="svg8"
   inkscape:version="1.0 (6e3e5246a0, 2020-05-07)"
   sodipodi:docname="pluginIcon.svg">
  <defs
     id="defs2">
    <mask
       fill="#fff"
       id="git-b">
      <polygon
         transform="scale(0.26458333)"
         id="use5"
         points="0,32 0,0.001 32,0.001 32,32 " />
    </mask>
    <mask
       fill="#fff"
       id="git-b-7">
      <polygon
         transform="scale(0.26458333)"
         id="use5-9"
         points="0,32 0,0.001 32,0.001 32,32 " />
    </mask>
    <mask
       fill="#fff"
       id="git-b-2">
      <polygon
         transform="scale(0.26458333)"
         id="use5-0"
         points="0,32 0,0.001 32,0.001 32,32 " />
    </mask>
    <mask
       fill="#ffffff"
       id="git-b-9">
      <polygon
         transform="scale(0.26458333)"
         id="use5-2"
         points="0,32 0,0.001 32,0.001 32,32 " />
    </mask>
  </defs>
  <sodipodi:namedview
     id="base"
     pagecolor="#ffffff"
     bordercolor="#666666"
     borderopacity="1.0"
     inkscape:pageopacity="0.0"
     inkscape:pageshadow="2"
     inkscape:zoom="4.0000002"
     inkscape:cx="50.377678"
     inkscape:cy="54.936709"
     inkscape:document-units="px"
     inkscape:current-layer="layer1"
     inkscape:document-rotation="0"
     showgrid="false"
     inkscape:showpageshadow="false"
     units="px"
     inkscape:pagecheckerboard="false"
     inkscape:window-width="1866"
     inkscape:window-height="1172"
     inkscape:window-x="1974"
     inkscape:window-y="0"
     inkscape:window-maximized="1"
     inkscape:snap-page="true"
     inkscape:snap-text-baseline="true"
     inkscape:snap-center="true"
     inkscape:snap-object-midpoints="true"
     inkscape:snap-midpoints="true"
     inkscape:snap-smooth-nodes="true"
     inkscape:object-paths="true"
     inkscape:snap-intersection-paths="true"
     inkscape:snap-bbox="true"
     inkscape:bbox-paths="true"
     inkscape:bbox-nodes="true"
     inkscape:snap-bbox-edge-midpoints="true"
     inkscape:snap-bbox-midpoints="true"
     inkscape:snap-grids="true"
     inkscape:snap-nodes="true"
     inkscape:snap-others="true">
    <inkscape:grid
       type="xygrid"
       id="grid10"
       spacingx="0.26458332"
       spacingy="0.26458332"
       empspacing="2" />
  </sodipodi:namedview>
  <metadata
     id="metadata5">
    <rdf:RDF>
      <cc:Work
         rdf:about="">
        <dc:format>image/svg+xml</dc:format>
        <dc:type
           rdf:resource="http://purl.org/dc/dcmitype/StillImage" />
        <dc:title></dc:title>
      </cc:Work>
    </rdf:RDF>
  </metadata>
  <g
     inkscape:label="Layer 1"
     inkscape:groupmode="layer"
     id="layer1"
     style="display:inline;opacity:0.992">
    <path
       transform="scale(0.26458333)"
       id="rect1272"
       style="fill:#f05133;fill-opacity:1;stroke-width:0.999999;stroke-linecap:square;stroke-miterlimit:4;stroke-dasharray:none"
       d="M 8 12 L 8 13.412109 L 8 13.421875 L 8 34 L 22 34 L 38 34 L 38 18 L 32 12 L 22 12 L 9.4160156 12 L 8 12 z M 13 14.5 A 2.5000002 2.5000032 0 0 1 15.5 17 A 2.5000002 2.5000032 0 0 1 15.328125 17.910156 L 18.089844 20.673828 A 2.5000002 2.5000032 0 0 1 19 20.5 A 2.5000002 2.5000032 0 0 1 21.5 23 A 2.5000002 2.5000032 0 0 1 19 25.5 A 2.5000002 2.5000032 0 0 1 16.5 23 A 2.5000002 2.5000032 0 0 1 16.671875 22.089844 L 14.003906 19.421875 L 14.003906 26.710938 A 2.5000002 2.5000032 0 0 1 15.5 29 A 2.5000002 2.5000032 0 0 1 13 31.5 A 2.5000002 2.5000032 0 0 1 10.5 29 A 2.5000002 2.5000032 0 0 1 12.003906 26.707031 L 12.003906 19.292969 A 2.5000002 2.5000032 0 0 1 10.5 17 A 2.5000002 2.5000032 0 0 1 13 14.5 z M 25 20 L 34 20 L 34 22 L 25 22 L 25 20 z M 25.058594 24 L 34 24 L 34 26 L 25.058594 26 L 25.058594 24 z M 25.058594 28 L 34 28 L 34 30 L 25.058594 30 L 25.058594 28 z " />
    <path
       transform="scale(0.26458333)"
       id="rect1272-0"
       style="display:inline;fill:#33b8f0;fill-opacity:1;stroke-width:0.999999;stroke-linecap:square;stroke-miterlimit:4;stroke-dasharray:none"
       d="M 2 6 L 2 7.4160156 L 2 12 L 2 28 L 6 28 L 6 12 L 6 10 L 30 10 L 26 6 L 16 6 L 3.4160156 6 L 2 6 z " />
  </g>
  <g
     inkscape:groupmode="layer"
     id="layer2"
     inkscape:label="Layer 2"
     style="display:inline" />
</svg>
