<?xml version="1.0" encoding="utf-8"?>
<!-- Generator: Adobe Illustrator 25.4.1, SVG Export Plug-In . SVG Version: 6.00 Build 0)  -->
<svg version="1.1" id="Layer_1" xmlns="http://www.w3.org/2000/svg" xmlns:xlink="http://www.w3.org/1999/xlink" x="0px" y="0px"
	 viewBox="0 0 40 40" style="enable-background:new 0 0 40 40;" xml:space="preserve">
<style type="text/css">
	.st0{fill:#00AEEF;}
</style>
<g>
	<g>
		<path class="st0" d="M19.4,2c0.4,0,0.8,0,1.3,0c0,0,0.1,0,0.1,0c0.3,0,0.6,0,0.9,0.1c0.3,0,0.6,0.1,0.9,0.1
			c0.5,0.1,0.9,0.1,1.4,0.2c0.9,0.2,1.7,0.4,2.5,0.8c0.7,0.3,1.4,0.6,2.1,1c0.4,0.2,0.8,0.5,1.2,0.7c0.6,0.4,1.2,0.8,1.8,1.3
			c0.3,0.3,0.6,0.5,0.9,0.8c0.3,0.3,0.7,0.6,1,1c0.2,0.2,0.3,0.4,0.5,0.6c0.3,0.3,0.6,0.7,0.8,1.1c0.5,0.7,0.9,1.4,1.3,2.1
			c0.2,0.4,0.4,0.7,0.5,1.1c0.4,0.9,0.7,1.8,0.9,2.7c0.2,0.8,0.4,1.5,0.4,2.3c0,0.3,0.1,0.7,0.1,1.1c0,0,0,0.1,0,0.1
			c0,0.7,0,1.4,0,2.1c0,0.1,0,0.1,0,0.2c0,0.1,0,0.2,0,0.3c0,0.2-0.1,0.5-0.1,0.7c0,0.4-0.1,0.7-0.2,1.1c-0.2,1-0.4,1.9-0.8,2.9
			c-0.2,0.6-0.5,1.2-0.8,1.8c-0.1,0.3-0.3,0.5-0.4,0.8c-0.2,0.4-0.5,0.8-0.7,1.2c-0.3,0.5-0.6,0.9-1,1.4c-0.3,0.4-0.6,0.7-1,1.1
			c-0.5,0.5-1,1-1.5,1.4c-0.4,0.4-0.9,0.7-1.3,1c-0.5,0.4-1,0.7-1.6,1c-0.5,0.3-1,0.5-1.5,0.7c-0.7,0.3-1.4,0.5-2.1,0.8
			c-0.6,0.2-1.2,0.3-1.8,0.4c-0.4,0.1-0.9,0.1-1.3,0.2c-0.2,0-0.5,0.1-0.7,0.1c0,0-0.1,0-0.1,0c-0.6,0-1.3,0-1.9,0c0,0-0.1,0-0.1,0
			c-0.2,0-0.4,0-0.6,0c-0.3,0-0.6-0.1-0.9-0.1c-0.5-0.1-1-0.2-1.5-0.3c-0.8-0.2-1.5-0.4-2.2-0.7c-0.8-0.3-1.6-0.6-2.3-1.1
			c-0.8-0.4-1.6-0.9-2.3-1.5C8.6,33.9,8,33.5,7.5,33c-0.5-0.5-1-1-1.4-1.5c-0.5-0.6-0.9-1.2-1.3-1.8C4.4,29,4,28.2,3.6,27.4
			C3.3,26.6,3,25.8,2.7,25c-0.3-1-0.5-2-0.6-3c0-0.3-0.1-0.6-0.1-0.9c0-0.1,0-0.2-0.1-0.3c0-0.4,0-0.9,0-1.3c0,0,0-0.1,0-0.1
			c0-0.2,0-0.5,0.1-0.7c0-0.2,0-0.5,0.1-0.7c0.1-0.4,0.1-0.8,0.2-1.2c0.2-1.1,0.5-2.2,1-3.2c0.2-0.6,0.5-1.2,0.8-1.7
			c0.2-0.4,0.5-0.9,0.7-1.3C5.4,9.5,5.9,8.7,6.6,8c0.3-0.4,0.7-0.7,1-1.1C8,6.6,8.4,6.2,8.8,5.9C9.4,5.5,10,5,10.6,4.7
			c0.6-0.4,1.3-0.8,2-1.1c0.5-0.2,1-0.4,1.5-0.6c0.7-0.3,1.5-0.5,2.2-0.6c0.4-0.1,0.9-0.2,1.3-0.2c0.3,0,0.6-0.1,0.9-0.1
			c0.2,0,0.5,0,0.7,0C19.3,2,19.3,2,19.4,2z M12.6,26.6C12.6,26.5,12.7,26.5,12.6,26.6c0.4-0.2,0.7-0.4,1-0.6c1-0.6,2-1.2,3-1.8
			c1-0.6,2-1.2,3-1.9c1-0.6,2-1.2,3-1.9c1-0.6,2-1.2,3-1.8c0.8-0.5,1.7-1,2.5-1.5c1-0.6,1.9-1.2,2.9-1.8c0.1-0.1,0.2-0.1,0.3-0.2
			c0.3-0.3,0.4-0.6,0.5-0.9c0.1-0.3,0.1-0.5,0-0.8c-0.1-0.2-0.2-0.4-0.3-0.6c-0.1-0.2-0.2-0.3-0.3-0.5c-0.4-0.6-0.9-1.2-1.5-1.7
			c-0.2-0.2-0.5-0.4-0.7-0.7c-0.4-0.4-0.9-0.7-1.3-1c-0.6-0.4-1.3-0.8-2-1.1c-0.4-0.2-0.9-0.4-1.3-0.5c-0.6-0.2-1.1-0.3-1.7-0.5
			c-0.3-0.1-0.7-0.1-1-0.2c-0.2,0-0.4,0-0.6-0.1c-0.2,0-0.4,0-0.6,0c-0.6,0-1.2,0-1.9,0c-0.3,0-0.7,0.1-1,0.1
			c-0.6,0.1-1.2,0.2-1.7,0.4c-0.5,0.2-1.1,0.4-1.6,0.6c-0.5,0.2-1,0.5-1.4,0.8c-0.3,0.2-0.5,0.4-0.8,0.6c-0.5,0.4-0.9,0.8-1.3,1.2
			c-0.1,0.1-0.2,0.2-0.3,0.4c-0.2,0.2-0.4,0.4-0.6,0.6c-0.6,0.7-1.1,1.5-1.6,2.3c-0.5,1-1,2.1-1.2,3.2c-0.1,0.5-0.2,1-0.3,1.5
			c0,0.2,0,0.4-0.1,0.6c0,0.2,0,0.4,0,0.6c0,0.4,0,0.9,0,1.3c0,0.2,0,0.5,0.1,0.7c0,0.4,0.1,0.7,0.2,1c0.1,0.6,0.3,1.1,0.4,1.7
			c0.2,0.7,0.5,1.4,0.9,2.1c0.3,0.6,0.7,1.2,1.1,1.8c0.4,0.6,0.9,1.1,1.4,1.7c0.1,0.1,0.2,0.1,0.2,0.2c0.3,0.3,0.6,0.6,1,0.8
			c0.5,0.4,1.1,0.8,1.6,1.1c0.5,0.3,0.9,0.5,1.4,0.7c0.7,0.3,1.4,0.5,2.1,0.7c0.4,0.1,0.8,0.2,1.2,0.2c0.2,0,0.4,0,0.6,0.1
			c0.3,0,0.7,0,1,0c0.2,0,0.4,0,0.6,0c0.3,0,0.6,0,0.9-0.1c0.3,0,0.5-0.1,0.8-0.1c0.7-0.1,1.3-0.3,2-0.5c0.6-0.2,1.3-0.5,1.9-0.8
			c0.4-0.2,0.7-0.4,1.1-0.6c0.5-0.3,1-0.6,1.4-1c0.4-0.3,0.8-0.6,1.1-0.9c0.2-0.2,0.4-0.4,0.6-0.5c0.2-0.2,0.3-0.4,0.5-0.5
			c0.3-0.3,0.6-0.7,0.8-1.1c0.3-0.4,0.5-0.8,0.7-1.3c0.2-0.4,0.3-0.8,0.5-1.2c0.2-0.6,0.3-1.1,0.4-1.7c0-0.1,0-0.3,0-0.4
			c0-0.3-0.1-0.5-0.2-0.8c-0.4-0.6-1.1-0.9-1.7-0.8c-0.6,0.1-1.3,0.5-1.5,1.3c0,0.1-0.1,0.3-0.1,0.4c-0.3,0.8-0.6,1.6-1,2.3
			c-0.3,0.6-0.7,1.1-1.2,1.6c-0.3,0.3-0.6,0.6-0.9,0.9c-0.6,0.5-1.2,0.9-1.9,1.3c-0.5,0.3-1.1,0.5-1.7,0.7c-0.8,0.2-1.5,0.4-2.3,0.4
			c-0.6,0-1.3,0-1.9-0.1c-0.6-0.1-1.1-0.2-1.7-0.4c-0.4-0.1-0.8-0.3-1.2-0.5c-0.4-0.2-0.8-0.4-1.2-0.6c-0.7-0.5-1.3-1-1.9-1.6
			C12.7,26.7,12.7,26.7,12.6,26.6z"/>
		<path class="st0" d="M27.6,13.3c-0.1,0-0.1,0.1-0.2,0.1c-0.5,0.3-0.9,0.6-1.4,0.8c-0.6,0.4-1.3,0.8-1.9,1.2
			c-0.9,0.5-1.7,1.1-2.6,1.6c-1,0.6-2,1.2-3,1.9c-1,0.6-2,1.2-3,1.9c-0.8,0.5-1.7,1-2.5,1.5c-0.7,0.4-1.4,0.8-2,1.2
			c0,0-0.1,0.1-0.1,0.1c0-0.1-0.1-0.1-0.1-0.2c-0.2-0.5-0.3-1-0.4-1.5c-0.1-0.3-0.1-0.6-0.1-1c0-0.2,0-0.5,0-0.7c0-0.2,0-0.3,0-0.5
			c0-0.3,0-0.6,0.1-0.8c0-0.5,0.1-0.9,0.3-1.4c0.1-0.4,0.3-0.9,0.4-1.3c0.4-0.8,0.8-1.6,1.4-2.3c0.4-0.5,0.8-0.9,1.2-1.3
			c0.5-0.5,1.1-0.9,1.7-1.2c0.6-0.4,1.3-0.6,2-0.9c0.5-0.1,0.9-0.2,1.4-0.3c0.2,0,0.4-0.1,0.7-0.1c0.2,0,0.5,0,0.7,0
			c0.2,0,0.4,0,0.6,0c0.2,0,0.4,0,0.6,0c0.2,0,0.4,0,0.5,0.1c0.4,0.1,0.8,0.1,1.2,0.3c0.7,0.2,1.4,0.5,2.1,0.8
			c0.6,0.3,1.2,0.7,1.7,1.2c0.3,0.2,0.5,0.5,0.8,0.7C27.5,13.2,27.6,13.2,27.6,13.3C27.6,13.2,27.6,13.3,27.6,13.3z"/>
	</g>
</g>
</svg>
