<svg id="f22d59ee-c2ef-4e6a-be78-8085100d710f" data-name="Layer 1" xmlns="http://www.w3.org/2000/svg"
     viewBox="0 0 38.13 16.72">
    <defs>
        <style>.f0db8a14-73c7-4f8d-aee2-3e1ba81bb407{fill:#5787a5;}</style>
    </defs>
    <path class="f0db8a14-73c7-4f8d-aee2-3e1ba81bb407"
          d="M5.62,19.06a3.5,3.5,0,0,1,.64-1.17,3.1,3.1,0,0,1,1.07-.8,3.4,3.4,0,0,1,1.48-.3,3.46,3.46,0,0,1,1.48.3,3.16,3.16,0,0,1,1.06.8A3.33,3.33,0,0,1,12,19.06a4.45,4.45,0,0,1,.22,1.36A4.52,4.52,0,0,1,12,21.79,3.29,3.29,0,0,1,11.35,23a2.92,2.92,0,0,1-1.06.8,3.46,3.46,0,0,1-1.48.3,3.4,3.4,0,0,1-1.48-.3A2.87,2.87,0,0,1,6.26,23a3.29,3.29,0,0,1-.64-1.16,4.46,4.46,0,0,1-.21-1.37A4.4,4.4,0,0,1,5.62,19.06Zm.87,2.4a2.68,2.68,0,0,0,.43.92,2.35,2.35,0,0,0,.77.66,2.39,2.39,0,0,0,1.11.24A2.46,2.46,0,0,0,9.92,23a2.32,2.32,0,0,0,.76-.66,2.7,2.7,0,0,0,.44-.92,3.9,3.9,0,0,0,0-2.07,2.7,2.7,0,0,0-.44-.92,2.32,2.32,0,0,0-.76-.66,2.47,2.47,0,0,0-1.12-.25,2.39,2.39,0,0,0-1.11.25,2.35,2.35,0,0,0-.77.66,2.68,2.68,0,0,0-.43.92,3.9,3.9,0,0,0,0,2.07Z"
          transform="translate(-1.03 -12.09)"/>
    <path class="f0db8a14-73c7-4f8d-aee2-3e1ba81bb407"
          d="M13.61,19.47v.59h0a1.1,1.1,0,0,1,.57-.53,2.2,2.2,0,0,1,.86-.17,2.14,2.14,0,0,1,.91.19,1.94,1.94,0,0,1,.65.51,2.27,2.27,0,0,1,.39.74,3.19,3.19,0,0,1,.13.89,3.24,3.24,0,0,1-.13.89,2,2,0,0,1-.38.73,1.86,1.86,0,0,1-.65.49,2.13,2.13,0,0,1-.9.18l-.37,0a3.11,3.11,0,0,1-.41-.11,2.82,2.82,0,0,1-.38-.21,1.18,1.18,0,0,1-.3-.33h0v2.28h-.75V19.45ZM16.27,21a1.64,1.64,0,0,0-.26-.53,1.19,1.19,0,0,0-.43-.37A1.38,1.38,0,0,0,15,20a1.26,1.26,0,0,0-.64.14,1.32,1.32,0,0,0-.43.38,1.65,1.65,0,0,0-.24.54,3,3,0,0,0-.07.6,2.59,2.59,0,0,0,.08.63,1.37,1.37,0,0,0,.25.53,1.25,1.25,0,0,0,.44.38,1.42,1.42,0,0,0,.65.14,1.29,1.29,0,0,0,.64-.15,1.1,1.1,0,0,0,.41-.39,1.55,1.55,0,0,0,.23-.54,2.7,2.7,0,0,0,.07-.63,2.35,2.35,0,0,0-.08-.6Z"
          transform="translate(-1.03 -12.09)"/>
    <path class="f0db8a14-73c7-4f8d-aee2-3e1ba81bb407"
          d="M20.94,23.63a2.09,2.09,0,0,1-1.28.37,2.29,2.29,0,0,1-.94-.17,1.79,1.79,0,0,1-.67-.48,2,2,0,0,1-.4-.73,3.93,3.93,0,0,1-.16-.94,2.73,2.73,0,0,1,.16-.92,2.33,2.33,0,0,1,.44-.73,2.28,2.28,0,0,1,.67-.48,2.2,2.2,0,0,1,.86-.17,1.92,1.92,0,0,1,1,.24,2,2,0,0,1,.64.63,2.36,2.36,0,0,1,.33.82,3.56,3.56,0,0,1,.08.84H18.29a1.41,1.41,0,0,0,.07.55,1.15,1.15,0,0,0,.25.46,1.19,1.19,0,0,0,.44.32,1.59,1.59,0,0,0,.64.12,1.32,1.32,0,0,0,.77-.21,1.06,1.06,0,0,0,.4-.65h.73a1.77,1.77,0,0,1-.66,1.12Zm-.18-2.84a1.41,1.41,0,0,0-.27-.4,1.31,1.31,0,0,0-.91-.36,1.24,1.24,0,0,0-.52.1,1.09,1.09,0,0,0-.4.27,1.33,1.33,0,0,0-.26.39,1.59,1.59,0,0,0-.11.49h2.59a1.6,1.6,0,0,0-.12-.49Z"
          transform="translate(-1.03 -12.09)"/>
    <path class="f0db8a14-73c7-4f8d-aee2-3e1ba81bb407"
          d="M22.86,19.47v.7h0a1.57,1.57,0,0,1,1.47-.81,1.94,1.94,0,0,1,.74.12,1.23,1.23,0,0,1,.49.34,1.22,1.22,0,0,1,.25.51,2.57,2.57,0,0,1,.08.65v2.91h-.75v-3a.87.87,0,0,0-.24-.65.94.94,0,0,0-.68-.24,1.55,1.55,0,0,0-.59.1,1.13,1.13,0,0,0-.41.29,1.2,1.2,0,0,0-.25.44,1.69,1.69,0,0,0-.09.56v2.5h-.74V19.48Z"
          transform="translate(-1.03 -12.09)"/>
    <path class="f0db8a14-73c7-4f8d-aee2-3e1ba81bb407"
          d="M31.08,23.85a2.66,2.66,0,0,1-1,.21,3.64,3.64,0,0,1-1.47-.28A3.06,3.06,0,0,1,27.5,23a3.43,3.43,0,0,1-.69-1.15,4.15,4.15,0,0,1-.24-1.42A4.28,4.28,0,0,1,26.81,19a3.42,3.42,0,0,1,.69-1.17,3.1,3.1,0,0,1,1.09-.78,3.6,3.6,0,0,1,1.47-.28,3.49,3.49,0,0,1,1.06.16,3.11,3.11,0,0,1,.92.48,2.66,2.66,0,0,1,.68.77,2.59,2.59,0,0,1,.33,1.05H31.56a1.45,1.45,0,0,0-.54-.88,1.59,1.59,0,0,0-1-.29,1.86,1.86,0,0,0-.89.2,1.65,1.65,0,0,0-.6.54,2.37,2.37,0,0,0-.33.76,3.8,3.8,0,0,0-.11.89,3.56,3.56,0,0,0,.11.86,2.36,2.36,0,0,0,.33.74,1.62,1.62,0,0,0,.6.53,1.75,1.75,0,0,0,.89.2,1.7,1.7,0,0,0,1.2-.38,1.62,1.62,0,0,0,.49-1.11H30.19V20.15h3V23.9h-1L32,23.11a2.36,2.36,0,0,1-.92.74Z"
          transform="translate(-1.03 -12.09)"/>
    <path class="f0db8a14-73c7-4f8d-aee2-3e1ba81bb407" d="M35.7,17v5.64h3.46v1.29h-5V17Z"
          transform="translate(-1.03 -12.09)"/>
    <path class="f0db8a14-73c7-4f8d-aee2-3e1ba81bb407"
          d="M28.34,24.78A20.06,20.06,0,0,1,18.42,27c-7.18,0-13-2.93-13-6.54s5.81-6.54,13-6.54a20.08,20.08,0,0,1,10,2.25c-2.6-2.39-7.26-4.09-12.58-4.09C7.65,12.09,1,15.85,1,20.45s6.62,8.36,14.77,8.36c5.29,0,10-1.67,12.54-4Z"
          transform="translate(-1.03 -12.09)"/>
</svg>